<svg width="20" height="20" viewBox="0 0 20 20" fill="none" xmlns="http://www.w3.org/2000/svg">
<g id="vuesax/linear/book-saved">
<g id="book-saved">
<path id="Vector" d="M18.3334 3.89167V13.95C18.3334 14.75 17.6834 15.5 16.8834 15.6L16.6084 15.6334C14.7917 15.875 11.9917 16.8 10.3917 17.6833C10.1751 17.8083 9.81676 17.8083 9.59176 17.6833L9.55839 17.6667C7.95839 16.7917 5.16677 15.875 3.35844 15.6334L3.11674 15.6C2.31674 15.5 1.66675 14.75 1.66675 13.95V3.88333C1.66675 2.89167 2.47506 2.14167 3.46673 2.22501C5.21673 2.36667 7.86672 3.25003 9.35006 4.17503L9.55839 4.3C9.80006 4.45 10.2001 4.45 10.4418 4.3L10.5834 4.20834C11.1084 3.88334 11.7751 3.55834 12.5001 3.26667V6.66669L14.1667 5.55834L15.8334 6.66669V2.31671C16.0584 2.27505 16.2751 2.25002 16.4751 2.23335H16.5251C17.5168 2.15002 18.3334 2.89167 18.3334 3.89167Z" stroke="#999999" stroke-width="1.5" stroke-linecap="round" stroke-linejoin="round"/>
<path id="Vector_2" d="M10 4.57499V17.075" stroke="#999999" stroke-width="1.5" stroke-linecap="round" stroke-linejoin="round"/>
<path id="Vector_3" d="M15.8333 2.31669V6.66666L14.1667 5.55832L12.5 6.66666V3.26665C13.5917 2.83332 14.8083 2.48336 15.8333 2.31669Z" stroke="#999999" stroke-width="1.5" stroke-linecap="round" stroke-linejoin="round"/>
</g>
</g>
</svg>
