<svg width="20" height="20" viewBox="0 0 20 20" fill="none" xmlns="http://www.w3.org/2000/svg">
<g id="vuesax/linear/music-library-2">
<g id="music-library-2">
<path id="Vector" d="M18.3334 10.8333V14.1667C18.3334 17.0833 16.6667 18.3333 14.1667 18.3333H5.83341C3.33341 18.3333 1.66675 17.0833 1.66675 14.1667V10.8333C1.66675 8.625 2.62508 7.37502 4.16675 6.90002C4.66675 6.74169 5.22508 6.66667 5.83341 6.66667H14.1667C14.7751 6.66667 15.3334 6.74169 15.8334 6.90002C17.3751 7.37502 18.3334 8.625 18.3334 10.8333Z" stroke="#999999" stroke-width="1.5" stroke-miterlimit="10" stroke-linecap="round" stroke-linejoin="round"/>
<path id="Vector_2" d="M15.8334 5.83333V6.90002C15.3334 6.74169 14.7751 6.66667 14.1667 6.66667H5.83341C5.22508 6.66667 4.66675 6.74169 4.16675 6.90002V5.83333C4.16675 4.91667 4.91675 4.16667 5.83341 4.16667H14.1667C15.0834 4.16667 15.8334 4.91667 15.8334 5.83333Z" stroke="#999999" stroke-width="1.5" stroke-miterlimit="10" stroke-linecap="round" stroke-linejoin="round"/>
<path id="Vector_3" d="M13.3334 2.92501V4.16667H6.66675V2.92501C6.66675 2.23334 7.23342 1.66667 7.92509 1.66667H12.0751C12.7667 1.66667 13.3334 2.23334 13.3334 2.92501Z" stroke="#999999" stroke-width="1.5" stroke-miterlimit="10" stroke-linecap="round" stroke-linejoin="round"/>
<g id="Group">
<path id="Vector_4" d="M7.55826 16.2083C8.16577 16.2083 8.65826 15.7159 8.65826 15.1083C8.65826 14.5008 8.16577 14.0083 7.55826 14.0083C6.95074 14.0083 6.45825 14.5008 6.45825 15.1083C6.45825 15.7159 6.95074 16.2083 7.55826 16.2083Z" stroke="#999999" stroke-width="1.5" stroke-linecap="round" stroke-linejoin="round"/>
<path id="Vector_5" d="M12.7081 14.375V10.0667C12.7081 9.15 12.1331 9.01667 11.5498 9.18333L9.3415 9.78331C8.9415 9.89164 8.6665 10.2083 8.6665 10.6666V11.4333V11.95V15.1083" stroke="#999999" stroke-width="1.5" stroke-linecap="round" stroke-linejoin="round"/>
<path id="Vector_6" d="M11.6083 15.475C12.2158 15.475 12.7083 14.9825 12.7083 14.375C12.7083 13.7675 12.2158 13.275 11.6083 13.275C11.0008 13.275 10.5083 13.7675 10.5083 14.375C10.5083 14.9825 11.0008 15.475 11.6083 15.475Z" stroke="#999999" stroke-width="1.5" stroke-linecap="round" stroke-linejoin="round"/>
<path id="Vector_7" d="M8.6665 11.9583L12.7081 10.8584" stroke="#999999" stroke-width="1.5" stroke-linecap="round" stroke-linejoin="round"/>
</g>
</g>
</g>
</svg>
